<?xml version="1.0" encoding="UTF-8"?>
<!DOCTYPE svg PUBLIC "-//W3C//DTD SVG 1.1//EN" "http://www.w3.org/Graphics/SVG/1.1/DTD/svg11.dtd">
<svg version="1.2" width="80mm" height="100mm" viewBox="0 0 8000 10000" preserveAspectRatio="xMidYMid" fill-rule="evenodd" stroke-width="28.222" stroke-linejoin="round" xmlns="http://www.w3.org/2000/svg" xmlns:ooo="http://xml.openoffice.org/svg/export" xmlns:xlink="http://www.w3.org/1999/xlink" xmlns:presentation="http://sun.com/xmlns/staroffice/presentation" xmlns:smil="http://www.w3.org/2001/SMIL20/" xmlns:anim="urn:oasis:names:tc:opendocument:xmlns:animation:1.0" xmlns:svg="urn:oasis:names:tc:opendocument:xmlns:svg-compatible:1.0" xml:space="preserve">
 <defs class="ClipPathGroup">
  <clipPath id="presentation_clip_path" clipPathUnits="userSpaceOnUse">
   <rect x="0" y="0" width="8000" height="10000"/>
  </clipPath>
  <clipPath id="presentation_clip_path_shrink" clipPathUnits="userSpaceOnUse">
   <rect x="8" y="10" width="7984" height="9980"/>
  </clipPath>
 </defs>
 <defs class="TextShapeIndex">
  <g ooo:slide="id1" ooo:id-list="id3"/>
 </defs>
 <defs class="EmbeddedBulletChars">
  <g id="bullet-char-template-57356" transform="scale(0.00048828125,-0.00048828125)">
   <path d="M 580,1141 L 1163,571 580,0 -4,571 580,1141 Z"/>
  </g>
  <g id="bullet-char-template-57354" transform="scale(0.00048828125,-0.00048828125)">
   <path d="M 8,1128 L 1137,1128 1137,0 8,0 8,1128 Z"/>
  </g>
  <g id="bullet-char-template-10146" transform="scale(0.00048828125,-0.00048828125)">
   <path d="M 174,0 L 602,739 174,1481 1456,739 174,0 Z M 1358,739 L 309,1346 659,739 1358,739 Z"/>
  </g>
  <g id="bullet-char-template-10132" transform="scale(0.00048828125,-0.00048828125)">
   <path d="M 2015,739 L 1276,0 717,0 1260,543 174,543 174,936 1260,936 717,1481 1274,1481 2015,739 Z"/>
  </g>
  <g id="bullet-char-template-10007" transform="scale(0.00048828125,-0.00048828125)">
   <path d="M 0,-2 C -7,14 -16,27 -25,37 L 356,567 C 262,823 215,952 215,954 215,979 228,992 255,992 264,992 276,990 289,987 310,991 331,999 354,1012 L 381,999 492,748 772,1049 836,1024 860,1049 C 881,1039 901,1025 922,1006 886,937 835,863 770,784 769,783 710,716 594,584 L 774,223 C 774,196 753,168 711,139 L 727,119 C 717,90 699,76 672,76 641,76 570,178 457,381 L 164,-76 C 142,-110 111,-127 72,-127 30,-127 9,-110 8,-76 1,-67 -2,-52 -2,-32 -2,-23 -1,-13 0,-2 Z"/>
  </g>
  <g id="bullet-char-template-10004" transform="scale(0.00048828125,-0.00048828125)">
   <path d="M 285,-33 C 182,-33 111,30 74,156 52,228 41,333 41,471 41,549 55,616 82,672 116,743 169,778 240,778 293,778 328,747 346,684 L 369,508 C 377,444 397,411 428,410 L 1163,1116 C 1174,1127 1196,1133 1229,1133 1271,1133 1292,1118 1292,1087 L 1292,965 C 1292,929 1282,901 1262,881 L 442,47 C 390,-6 338,-33 285,-33 Z"/>
  </g>
  <g id="bullet-char-template-9679" transform="scale(0.00048828125,-0.00048828125)">
   <path d="M 813,0 C 632,0 489,54 383,161 276,268 223,411 223,592 223,773 276,916 383,1023 489,1130 632,1184 813,1184 992,1184 1136,1130 1245,1023 1353,916 1407,772 1407,592 1407,412 1353,268 1245,161 1136,54 992,0 813,0 Z"/>
  </g>
  <g id="bullet-char-template-8226" transform="scale(0.00048828125,-0.00048828125)">
   <path d="M 346,457 C 273,457 209,483 155,535 101,586 74,649 74,723 74,796 101,859 155,911 209,963 273,989 346,989 419,989 480,963 531,910 582,859 608,796 608,723 608,648 583,586 532,535 482,483 420,457 346,457 Z"/>
  </g>
  <g id="bullet-char-template-8211" transform="scale(0.00048828125,-0.00048828125)">
   <path d="M -4,459 L 1135,459 1135,606 -4,606 -4,459 Z"/>
  </g>
  <g id="bullet-char-template-61548" transform="scale(0.00048828125,-0.00048828125)">
   <path d="M 173,740 C 173,903 231,1043 346,1159 462,1274 601,1332 765,1332 928,1332 1067,1274 1183,1159 1299,1043 1357,903 1357,740 1357,577 1299,437 1183,322 1067,206 928,148 765,148 601,148 462,206 346,322 231,437 173,577 173,740 Z"/>
  </g>
 </defs>
 <g>
  <g id="id2" class="Master_Slide">
   <g id="bg-id2" class="Background"/>
   <g id="bo-id2" class="BackgroundObjects"/>
  </g>
 </g>
 <g class="SlideGroup">
  <g>
   <g id="container-id1">
    <g id="id1" class="Slide" clip-path="url(#presentation_clip_path)">
     <g class="Page">
      <g class="Graphic">
       <g id="id3">
        <rect class="BoundingBox" stroke="none" fill="none" x="-3976" y="-7201" width="15777" height="22301"/>
        <path fill="rgb(0,0,0)" stroke="none" d="M 702,3731 C 677,3731 654,3727 634,3719 614,3711 596,3703 579,3695 565,3687 554,3681 545,3678 536,3674 528,3672 521,3672 512,3672 506,3676 503,3683 500,3690 497,3698 495,3707 L 492,3721 469,3721 474,3610 471,3490 494,3490 504,3534 C 511,3562 523,3588 541,3614 559,3641 581,3662 608,3679 635,3696 666,3704 701,3704 720,3704 739,3700 757,3691 774,3683 789,3670 801,3653 812,3636 818,3613 818,3585 818,3543 804,3509 777,3484 750,3458 713,3434 665,3411 L 625,3392 C 579,3370 544,3345 521,3318 498,3291 487,3256 487,3214 487,3181 495,3151 511,3126 528,3100 550,3080 578,3066 607,3052 639,3045 676,3045 701,3045 723,3048 741,3055 758,3062 772,3068 782,3073 798,3081 810,3085 820,3085 830,3085 836,3075 838,3056 L 861,3056 858,3146 860,3236 837,3236 C 833,3201 823,3172 808,3147 792,3122 773,3104 751,3090 729,3077 706,3071 680,3071 644,3071 614,3081 591,3103 569,3124 557,3151 557,3184 557,3219 569,3247 592,3267 615,3287 645,3307 682,3325 L 720,3344 C 754,3360 784,3378 808,3395 833,3413 852,3434 865,3458 879,3481 885,3511 885,3546 885,3583 877,3615 860,3643 844,3671 822,3693 794,3708 767,3723 736,3731 702,3731 L 702,3731 Z"/>
        <path fill="rgb(0,0,0)" stroke="none" d="M 1356,3731 C 1314,3731 1278,3722 1246,3704 1215,3686 1191,3662 1174,3630 1158,3599 1149,3564 1149,3524 1149,3480 1159,3441 1178,3407 1197,3373 1224,3346 1257,3326 1290,3307 1327,3297 1369,3297 1389,3297 1409,3300 1431,3306 1452,3313 1470,3322 1484,3334 1499,3347 1506,3362 1506,3380 1506,3394 1502,3405 1493,3414 1485,3423 1474,3428 1462,3428 1445,3428 1433,3423 1425,3414 1417,3404 1413,3395 1413,3386 1413,3381 1413,3376 1414,3373 1415,3369 1416,3365 1417,3362 1418,3359 1419,3356 1419,3353 1420,3349 1421,3346 1421,3342 1421,3333 1414,3327 1401,3324 1389,3322 1378,3320 1368,3320 1325,3320 1290,3339 1264,3375 1238,3412 1225,3460 1225,3519 1225,3553 1230,3583 1242,3611 1253,3639 1269,3662 1291,3678 1312,3695 1339,3703 1371,3703 1397,3703 1422,3696 1445,3681 1469,3667 1486,3642 1496,3606 L 1519,3614 C 1507,3657 1486,3687 1455,3705 1424,3722 1391,3731 1356,3731 L 1356,3731 Z"/>
        <path fill="rgb(0,0,0)" stroke="none" d="M 1742,3724 L 1742,3702 1757,3700 C 1775,3698 1789,3695 1799,3691 1808,3688 1815,3680 1819,3668 1823,3656 1825,3636 1825,3608 L 1825,3411 C 1825,3378 1818,3358 1804,3349 1791,3340 1772,3335 1749,3335 L 1742,3335 1742,3314 C 1768,3314 1792,3313 1816,3311 1840,3310 1864,3307 1890,3303 L 1890,3608 C 1890,3636 1892,3656 1895,3668 1899,3680 1906,3688 1916,3691 1925,3695 1939,3698 1957,3700 L 1972,3702 1972,3724 1857,3721 1742,3724 1742,3724 Z M 1846,3193 C 1830,3193 1817,3188 1808,3177 1798,3165 1794,3152 1794,3136 1794,3120 1798,3107 1808,3096 1817,3085 1830,3079 1846,3079 1864,3079 1877,3085 1886,3096 1894,3106 1898,3120 1898,3136 1898,3152 1894,3165 1886,3177 1877,3187 1864,3193 1846,3193 L 1846,3193 Z"/>
        <path fill="rgb(0,0,0)" stroke="none" d="M 2398,3731 C 2357,3731 2321,3722 2291,3704 2260,3687 2236,3662 2219,3631 2202,3599 2194,3563 2194,3523 2194,3479 2203,3440 2222,3406 2240,3372 2265,3346 2297,3326 2328,3306 2363,3296 2401,3296 2449,3296 2486,3312 2513,3342 2540,3373 2554,3413 2554,3463 2554,3470 2554,3476 2553,3481 2553,3486 2552,3490 2551,3492 L 2269,3492 C 2269,3500 2268,3509 2268,3518 2268,3551 2273,3582 2284,3610 2295,3638 2311,3661 2332,3678 2354,3695 2380,3703 2411,3703 2440,3703 2466,3695 2489,3678 2512,3662 2529,3637 2542,3605 L 2565,3613 C 2538,3692 2483,3731 2398,3731 L 2398,3731 Z M 2401,3320 C 2362,3320 2332,3334 2311,3361 2289,3389 2276,3425 2271,3471 L 2389,3471 C 2417,3471 2439,3467 2453,3461 2468,3454 2478,3446 2483,3436 2489,3427 2491,3417 2491,3408 2491,3380 2482,3359 2463,3343 2445,3328 2424,3320 2401,3320 L 2401,3320 Z"/>
        <path fill="rgb(0,0,0)" stroke="none" d="M 2793,3724 L 2793,3702 2808,3700 C 2826,3698 2840,3695 2850,3691 2859,3688 2866,3680 2870,3668 2874,3656 2875,3636 2875,3608 L 2875,3411 C 2875,3378 2869,3358 2855,3349 2842,3340 2823,3335 2800,3335 L 2793,3335 2793,3314 C 2819,3314 2843,3313 2867,3311 2890,3310 2915,3307 2941,3303 L 2941,3378 C 2955,3357 2975,3338 3001,3322 3027,3305 3058,3297 3093,3297 3135,3297 3169,3308 3193,3329 3218,3350 3230,3381 3230,3421 L 3230,3608 C 3230,3636 3232,3656 3236,3668 3239,3680 3246,3688 3256,3691 3266,3695 3279,3698 3297,3700 L 3312,3702 3312,3724 3198,3721 3083,3724 3083,3702 3098,3700 C 3116,3698 3130,3695 3139,3691 3149,3688 3156,3680 3160,3668 3163,3656 3165,3636 3165,3608 L 3165,3421 C 3165,3390 3157,3366 3141,3350 3125,3333 3102,3325 3073,3325 3050,3325 3030,3330 3012,3340 2994,3350 2979,3363 2967,3378 2955,3393 2946,3407 2941,3421 L 2941,3608 C 2941,3636 2943,3656 2946,3668 2950,3680 2957,3688 2966,3691 2976,3695 2990,3698 3008,3700 L 3023,3702 3023,3723 2908,3721 2793,3724 2793,3724 Z"/>
        <path fill="rgb(0,0,0)" stroke="none" d="M 3683,3731 C 3653,3731 3628,3722 3609,3704 3590,3685 3580,3655 3580,3613 L 3580,3337 3511,3337 3511,3314 3537,3312 C 3562,3310 3582,3300 3595,3281 3609,3262 3617,3235 3622,3201 L 3646,3201 3646,3314 3766,3314 3766,3337 3646,3337 3646,3617 C 3646,3672 3665,3699 3704,3699 3720,3699 3733,3694 3743,3683 3753,3672 3762,3659 3770,3642 L 3791,3653 C 3787,3662 3783,3671 3777,3678 3772,3686 3767,3693 3762,3698 3751,3710 3739,3719 3726,3723 3713,3729 3698,3731 3683,3731 L 3683,3731 Z"/>
        <path fill="rgb(0,0,0)" stroke="none" d="M 3996,3724 L 3996,3702 4011,3700 C 4029,3698 4043,3695 4053,3691 4063,3688 4069,3680 4073,3668 4077,3656 4079,3636 4079,3608 L 4079,3411 C 4079,3378 4072,3358 4059,3349 4045,3340 4027,3335 4003,3335 L 3996,3335 3996,3314 C 4022,3314 4046,3313 4070,3311 4094,3310 4118,3307 4144,3303 L 4144,3608 C 4144,3636 4146,3656 4150,3668 4153,3680 4160,3688 4170,3691 4179,3695 4193,3698 4211,3700 L 4226,3702 4226,3724 4111,3721 3996,3724 3996,3724 Z M 4100,3193 C 4084,3193 4071,3188 4062,3177 4052,3165 4048,3152 4048,3136 4048,3120 4052,3107 4062,3096 4071,3085 4084,3079 4100,3079 4118,3079 4131,3085 4140,3096 4148,3106 4152,3120 4152,3136 4152,3152 4148,3165 4140,3177 4131,3187 4118,3193 4100,3193 L 4100,3193 Z"/>
        <path fill="rgb(0,0,0)" stroke="none" d="M 4436,3724 L 4436,3702 4451,3700 C 4469,3698 4483,3695 4493,3691 4503,3688 4509,3680 4513,3668 4517,3656 4519,3636 4519,3608 L 4519,3337 4429,3337 4429,3314 4519,3314 4519,3250 C 4519,3215 4524,3181 4533,3150 4544,3119 4561,3094 4587,3074 4612,3054 4649,3045 4696,3045 4719,3045 4742,3049 4765,3056 4787,3064 4807,3076 4822,3092 4837,3108 4845,3129 4845,3154 4845,3169 4841,3182 4832,3192 4824,3201 4813,3206 4799,3206 4788,3206 4778,3203 4770,3196 4762,3189 4758,3180 4758,3169 4758,3162 4759,3156 4763,3152 4766,3148 4769,3144 4772,3141 4775,3137 4776,3133 4776,3127 4776,3113 4768,3099 4753,3087 4738,3074 4719,3068 4696,3068 4663,3068 4639,3077 4623,3095 4607,3113 4597,3137 4592,3165 4587,3194 4585,3224 4585,3255 L 4585,3314 4697,3314 C 4722,3314 4747,3313 4771,3311 4794,3310 4819,3307 4844,3303 L 4844,3608 C 4844,3636 4846,3656 4850,3668 4854,3680 4860,3688 4870,3691 4880,3695 4894,3698 4912,3700 L 4926,3702 4926,3724 4812,3721 4697,3724 4697,3702 4712,3700 C 4730,3698 4744,3695 4753,3691 4763,3688 4770,3680 4773,3668 4777,3656 4779,3636 4779,3608 L 4779,3411 C 4779,3385 4775,3367 4766,3357 4757,3346 4745,3339 4731,3337 L 4585,3337 4585,3608 C 4585,3636 4586,3656 4589,3668 4592,3680 4597,3688 4605,3691 4614,3695 4625,3698 4639,3700 L 4654,3702 4654,3724 4552,3721 4436,3724 4436,3724 Z"/>
        <path fill="rgb(0,0,0)" stroke="none" d="M 5354,3731 C 5312,3731 5276,3722 5244,3704 5213,3686 5189,3662 5172,3630 5155,3599 5147,3564 5147,3524 5147,3480 5157,3441 5176,3407 5195,3373 5222,3346 5255,3326 5288,3307 5325,3297 5367,3297 5387,3297 5407,3300 5429,3306 5450,3313 5468,3322 5482,3334 5497,3347 5504,3362 5504,3380 5504,3394 5500,3405 5491,3414 5483,3423 5472,3428 5459,3428 5443,3428 5431,3423 5423,3414 5415,3404 5411,3395 5411,3386 5411,3381 5411,3376 5412,3373 5413,3369 5414,3365 5415,3362 5416,3359 5417,3356 5417,3353 5418,3349 5418,3346 5418,3342 5418,3333 5412,3327 5399,3324 5387,3322 5376,3320 5366,3320 5323,3320 5288,3339 5262,3375 5236,3412 5223,3460 5223,3519 5223,3553 5228,3583 5240,3611 5251,3639 5267,3662 5289,3678 5310,3695 5337,3703 5368,3703 5395,3703 5420,3696 5443,3681 5467,3667 5484,3642 5494,3606 L 5517,3614 C 5505,3657 5484,3687 5453,3705 5422,3722 5389,3731 5354,3731 L 5354,3731 Z"/>
        <path fill="rgb(0,0,0)" stroke="none" d="M 777,4852 C 714,4852 659,4838 613,4808 568,4779 532,4739 508,4687 483,4636 471,4577 471,4510 471,4461 479,4415 495,4373 511,4331 534,4295 562,4264 591,4232 624,4208 662,4191 700,4174 740,4166 783,4166 821,4166 852,4170 877,4178 901,4187 920,4194 932,4200 941,4204 948,4207 955,4210 962,4213 967,4214 969,4214 976,4214 981,4212 986,4206 990,4201 993,4192 994,4179 L 1018,4179 1016,4288 1018,4397 994,4397 C 985,4332 963,4282 927,4247 892,4212 845,4194 786,4194 745,4194 710,4202 682,4219 654,4235 632,4258 615,4287 598,4316 586,4350 578,4388 571,4426 567,4467 567,4511 567,4576 574,4632 588,4679 601,4726 625,4761 657,4787 689,4812 732,4825 786,4825 827,4825 862,4815 892,4797 922,4778 946,4753 964,4722 982,4691 993,4657 997,4619 L 1020,4619 1018,4733 1021,4843 998,4843 995,4832 C 993,4824 990,4817 986,4809 983,4802 977,4798 969,4798 965,4798 960,4800 954,4802 948,4804 941,4808 934,4811 918,4820 896,4828 870,4838 844,4847 813,4852 777,4852 L 777,4852 Z"/>
        <path fill="rgb(0,0,0)" stroke="none" d="M 1270,4845 L 1270,4823 1285,4821 C 1303,4819 1317,4816 1326,4812 1336,4809 1343,4801 1346,4789 1350,4777 1352,4757 1352,4729 L 1352,4273 C 1352,4241 1345,4220 1332,4211 1318,4202 1300,4197 1276,4197 L 1270,4197 1270,4176 C 1295,4176 1320,4175 1344,4173 1367,4172 1392,4169 1417,4165 L 1417,4729 C 1417,4757 1419,4777 1423,4789 1427,4802 1433,4809 1443,4813 1453,4816 1467,4819 1485,4822 L 1499,4824 1499,4845 1385,4842 1270,4845 1270,4845 Z"/>
        <path fill="rgb(0,0,0)" stroke="none" d="M 1906,4852 C 1865,4852 1833,4842 1810,4822 1787,4801 1775,4771 1775,4731 L 1775,4550 C 1775,4522 1773,4502 1769,4490 1766,4478 1759,4470 1749,4466 1740,4462 1726,4459 1708,4458 L 1693,4456 1693,4434 1808,4437 1841,4436 1841,4728 C 1841,4758 1848,4782 1864,4798 1880,4814 1901,4822 1927,4822 1950,4822 1971,4817 1989,4807 2006,4797 2022,4783 2034,4767 2047,4751 2057,4734 2065,4718 L 2065,4550 C 2065,4522 2063,4502 2059,4490 2055,4478 2049,4470 2039,4466 2029,4463 2016,4460 1998,4458 L 1983,4456 1983,4435 2098,4438 2130,4436 2130,4738 C 2130,4762 2133,4779 2139,4791 2145,4803 2154,4810 2166,4814 2177,4817 2191,4819 2208,4819 L 2208,4841 C 2182,4841 2159,4841 2138,4842 2117,4843 2093,4845 2065,4850 L 2065,4764 C 2059,4774 2053,4783 2046,4790 2030,4808 2010,4823 1987,4835 1964,4847 1936,4852 1906,4852 L 1906,4852 Z"/>
        <path fill="rgb(0,0,0)" stroke="none" d="M 2460,4273 C 2460,4241 2453,4220 2440,4211 2426,4202 2408,4197 2384,4197 L 2377,4197 2377,4176 C 2403,4176 2427,4175 2451,4173 2475,4172 2499,4169 2525,4165 L 2525,4477 C 2542,4459 2561,4444 2583,4434 2605,4423 2629,4418 2655,4418 2691,4418 2723,4428 2752,4447 2780,4466 2802,4492 2819,4525 2836,4558 2844,4595 2844,4636 2844,4676 2836,4713 2819,4745 2803,4778 2780,4804 2751,4823 2722,4843 2688,4852 2651,4852 2625,4852 2601,4847 2578,4835 2556,4824 2538,4811 2524,4797 L 2475,4852 2460,4852 2460,4273 Z M 2646,4446 C 2619,4446 2596,4452 2576,4464 2557,4476 2540,4491 2525,4508 L 2525,4761 C 2536,4777 2552,4792 2573,4804 2594,4817 2617,4824 2643,4824 2672,4824 2695,4816 2714,4799 2733,4783 2747,4760 2756,4732 2765,4704 2770,4672 2770,4636 2770,4600 2766,4568 2757,4539 2748,4511 2734,4488 2716,4471 2697,4454 2674,4446 2646,4446 Z"/>
        <path fill="rgb(0,0,0)" stroke="none" d="M 3511,4845 L 3511,4821 3529,4820 C 3551,4817 3568,4814 3579,4810 3591,4806 3599,4797 3603,4784 3607,4770 3610,4748 3610,4718 L 3610,4303 C 3610,4272 3608,4250 3603,4236 3599,4223 3591,4215 3579,4211 3568,4207 3551,4203 3529,4201 L 3511,4199 3511,4176 3649,4179 4024,4179 4027,4247 4036,4330 4013,4330 C 4011,4299 4004,4275 3991,4258 3979,4240 3964,4228 3947,4221 3929,4214 3911,4209 3893,4208 3875,4207 3858,4206 3842,4206 L 3689,4206 3689,4480 3794,4480 C 3806,4480 3817,4477 3827,4471 3836,4465 3843,4454 3849,4438 3855,4421 3859,4398 3860,4367 L 3883,4367 3881,4493 3883,4631 3860,4631 C 3860,4585 3855,4553 3843,4534 3832,4515 3815,4506 3794,4506 L 3689,4506 3689,4718 C 3689,4748 3692,4771 3697,4784 3702,4798 3710,4807 3722,4811 3733,4815 3750,4818 3769,4819 L 3801,4821 3801,4844 3650,4842 3649,4842 3511,4845 3511,4845 Z"/>
        <path fill="rgb(0,0,0)" stroke="none" d="M 4421,4852 C 4381,4852 4344,4842 4312,4823 4279,4804 4253,4778 4234,4745 4215,4712 4206,4676 4206,4636 4206,4595 4215,4558 4234,4525 4253,4492 4279,4466 4312,4447 4345,4427 4381,4418 4421,4418 4461,4418 4498,4428 4530,4447 4562,4466 4588,4492 4607,4525 4626,4558 4635,4595 4635,4636 4635,4676 4626,4713 4607,4745 4588,4778 4562,4804 4530,4823 4498,4843 4461,4852 4421,4852 L 4421,4852 Z M 4421,4829 C 4454,4829 4481,4820 4502,4803 4522,4786 4537,4763 4547,4734 4556,4705 4561,4673 4561,4636 4561,4599 4556,4566 4547,4536 4537,4507 4522,4484 4502,4467 4481,4450 4454,4441 4421,4441 4387,4441 4360,4450 4339,4467 4319,4484 4304,4507 4295,4536 4285,4566 4281,4599 4281,4636 4281,4673 4285,4705 4295,4734 4304,4763 4319,4786 4339,4803 4360,4820 4387,4829 4421,4829 L 4421,4829 Z"/>
        <path fill="rgb(0,0,0)" stroke="none" d="M 4873,4845 L 4873,4823 4889,4821 C 4907,4819 4921,4816 4930,4812 4940,4809 4946,4801 4950,4789 4954,4777 4956,4757 4956,4729 L 4956,4535 C 4956,4510 4953,4493 4946,4481 4939,4470 4930,4463 4917,4461 4905,4458 4890,4456 4873,4456 L 4873,4435 C 4899,4435 4923,4434 4947,4432 4971,4430 4995,4427 5021,4423 L 5011,4531 5014,4531 C 5028,4489 5045,4460 5065,4443 5085,4426 5107,4418 5130,4418 5156,4418 5173,4424 5182,4437 5191,4450 5195,4462 5195,4474 5195,4488 5191,4499 5183,4507 5175,4516 5164,4520 5150,4520 5137,4520 5127,4517 5120,4511 5113,4505 5110,4498 5110,4490 5110,4483 5111,4477 5112,4472 5114,4466 5115,4462 5115,4459 5115,4453 5110,4449 5102,4449 5093,4449 5084,4453 5074,4462 5064,4470 5056,4481 5049,4495 5044,4507 5039,4520 5034,4534 5029,4549 5025,4564 5021,4581 L 5021,4729 C 5021,4757 5023,4777 5027,4789 5031,4801 5037,4809 5047,4812 5057,4816 5071,4819 5089,4821 L 5103,4823 5103,4845 4989,4842 4873,4845 4873,4845 Z"/>
        <path fill="rgb(0,0,0)" stroke="none" d="M 702,5973 C 677,5973 654,5969 634,5961 614,5953 596,5945 579,5937 565,5929 554,5923 545,5920 536,5916 528,5914 521,5914 512,5914 506,5918 503,5925 500,5932 497,5940 495,5949 L 492,5963 469,5963 474,5852 471,5732 494,5732 504,5776 C 511,5803 523,5830 541,5856 559,5883 581,5904 608,5921 635,5938 666,5946 701,5946 720,5946 739,5942 757,5933 774,5925 789,5912 801,5895 812,5878 818,5855 818,5826 818,5785 804,5751 777,5726 750,5700 713,5676 665,5653 L 625,5634 C 579,5612 544,5587 521,5560 498,5533 487,5498 487,5456 487,5423 495,5393 511,5368 528,5342 550,5322 578,5308 607,5294 639,5287 676,5287 701,5287 723,5290 741,5297 758,5304 772,5310 782,5315 798,5323 810,5327 820,5327 830,5327 836,5317 838,5298 L 861,5298 858,5388 860,5478 837,5478 C 833,5443 823,5414 808,5389 792,5364 773,5346 751,5332 729,5319 706,5313 680,5313 644,5313 614,5323 591,5344 569,5366 557,5393 557,5426 557,5461 569,5489 592,5509 615,5529 645,5549 682,5567 L 720,5585 C 754,5602 784,5620 808,5637 833,5655 852,5676 865,5700 879,5723 885,5753 885,5788 885,5825 877,5857 860,5885 844,5913 822,5935 794,5950 767,5965 736,5973 702,5973 L 702,5973 Z"/>
        <path fill="rgb(0,0,0)" stroke="none" d="M 1364,5973 C 1324,5973 1288,5963 1255,5944 1222,5925 1197,5899 1178,5866 1159,5833 1149,5797 1149,5757 1149,5716 1159,5679 1178,5646 1197,5613 1222,5587 1255,5568 1288,5548 1324,5539 1364,5539 1404,5539 1441,5549 1473,5568 1505,5587 1531,5613 1550,5646 1569,5679 1579,5716 1579,5757 1579,5797 1569,5834 1550,5866 1531,5899 1505,5925 1473,5944 1441,5964 1404,5973 1364,5973 L 1364,5973 Z M 1364,5950 C 1397,5950 1424,5941 1445,5924 1466,5907 1481,5884 1490,5855 1499,5826 1504,5794 1504,5757 1504,5720 1499,5687 1490,5657 1481,5628 1466,5605 1445,5588 1424,5571 1397,5562 1364,5562 1330,5562 1303,5571 1283,5588 1262,5605 1247,5628 1238,5657 1229,5687 1224,5720 1224,5757 1224,5794 1229,5826 1238,5855 1247,5884 1262,5907 1283,5924 1303,5941 1330,5950 1364,5950 L 1364,5950 Z"/>
        <path fill="rgb(0,0,0)" stroke="none" d="M 2039,5973 C 1998,5973 1961,5964 1930,5946 1899,5928 1875,5903 1858,5872 1841,5841 1833,5806 1833,5766 1833,5722 1843,5683 1862,5649 1881,5615 1907,5588 1940,5568 1973,5549 2011,5539 2053,5539 2072,5539 2093,5542 2114,5548 2135,5555 2153,5564 2168,5576 2182,5589 2190,5604 2190,5622 2190,5636 2185,5647 2177,5656 2168,5665 2158,5670 2145,5670 2129,5670 2117,5665 2109,5656 2100,5646 2096,5637 2096,5628 2096,5623 2097,5618 2098,5615 2099,5611 2099,5607 2100,5604 2102,5601 2102,5598 2103,5594 2104,5591 2104,5588 2104,5584 2104,5575 2098,5569 2085,5566 2072,5564 2061,5562 2052,5562 2008,5562 1973,5580 1948,5617 1922,5653 1908,5702 1908,5761 1908,5794 1914,5825 1925,5853 1936,5881 1953,5903 1974,5920 1996,5937 2022,5945 2054,5945 2080,5945 2105,5938 2129,5923 2152,5909 2170,5884 2180,5848 L 2202,5855 C 2190,5898 2169,5929 2138,5946 2108,5964 2075,5973 2039,5973 L 2039,5973 Z"/>
        <path fill="rgb(0,0,0)" stroke="none" d="M 2426,5966 L 2426,5944 2441,5942 C 2459,5940 2473,5937 2483,5933 2492,5930 2499,5922 2503,5910 2507,5898 2508,5878 2508,5850 L 2508,5653 C 2508,5620 2502,5599 2488,5590 2475,5582 2456,5577 2433,5577 L 2426,5577 2426,5556 C 2452,5556 2476,5555 2500,5553 2524,5552 2548,5549 2574,5544 L 2574,5850 C 2574,5878 2576,5898 2579,5910 2583,5922 2590,5930 2599,5933 2609,5937 2623,5940 2641,5942 L 2656,5944 2656,5966 2541,5963 2426,5966 2426,5966 Z M 2530,5435 C 2514,5435 2501,5429 2492,5418 2482,5407 2477,5394 2477,5378 2477,5362 2482,5348 2492,5337 2501,5326 2513,5321 2530,5321 2548,5321 2561,5326 2570,5337 2578,5348 2582,5362 2582,5378 2582,5394 2578,5407 2570,5418 2561,5429 2548,5435 2530,5435 L 2530,5435 Z"/>
        <path fill="rgb(0,0,0)" stroke="none" d="M 2986,5973 C 2956,5973 2931,5965 2911,5950 2892,5935 2882,5914 2882,5886 2882,5859 2894,5834 2919,5813 2943,5791 2971,5772 3003,5754 3028,5741 3052,5729 3076,5719 3101,5709 3121,5701 3139,5694 L 3139,5664 C 3139,5630 3133,5604 3120,5587 3107,5570 3083,5562 3047,5562 3030,5562 3014,5564 2998,5569 2982,5573 2974,5581 2974,5593 2974,5596 2974,5598 2975,5602 2976,5605 2976,5608 2977,5611 2980,5619 2982,5627 2982,5636 2982,5648 2978,5657 2969,5664 2961,5670 2951,5673 2939,5673 2928,5673 2918,5669 2911,5661 2903,5652 2900,5642 2900,5630 2900,5608 2908,5590 2925,5576 2943,5563 2964,5553 2988,5548 3013,5542 3037,5539 3060,5539 3110,5539 3147,5551 3170,5574 3193,5597 3204,5634 3204,5687 L 3204,5855 C 3204,5882 3206,5903 3210,5918 3214,5933 3224,5941 3238,5941 3247,5941 3255,5937 3262,5930 3269,5924 3274,5916 3276,5908 L 3293,5915 C 3288,5933 3279,5947 3266,5957 3254,5968 3236,5973 3214,5973 3186,5973 3167,5965 3157,5950 3147,5934 3141,5913 3140,5887 3122,5915 3100,5936 3073,5951 3047,5966 3017,5973 2986,5973 L 2986,5973 Z M 2955,5882 C 2955,5899 2960,5913 2970,5923 2980,5933 2996,5938 3015,5938 3033,5938 3051,5934 3067,5925 3084,5917 3098,5906 3111,5892 3123,5879 3132,5865 3139,5849 L 3139,5712 C 3118,5721 3097,5731 3076,5743 3054,5755 3034,5767 3016,5782 2998,5796 2983,5811 2971,5828 2960,5844 2955,5862 2955,5882 L 2955,5882 Z"/>
        <path fill="rgb(0,0,0)" stroke="none" d="M 3477,5966 L 3477,5944 3492,5942 C 3510,5940 3524,5937 3534,5933 3543,5930 3550,5922 3554,5910 3557,5898 3559,5878 3559,5850 L 3559,5394 C 3559,5362 3553,5341 3539,5332 3526,5323 3507,5318 3484,5318 L 3477,5318 3477,5297 C 3502,5297 3527,5296 3551,5294 3574,5293 3599,5290 3625,5286 L 3625,5850 C 3625,5878 3627,5898 3630,5910 3634,5923 3641,5930 3650,5934 3660,5937 3674,5940 3692,5943 L 3707,5944 3707,5966 3592,5963 3477,5966 3477,5966 Z"/>
        <path fill="rgb(0,0,0)" stroke="none" d="M 980,7094 C 946,7094 920,7082 904,7059 887,7036 877,7007 872,6973 868,6948 864,6923 857,6898 850,6873 840,6850 826,6829 812,6808 792,6792 767,6779 742,6767 709,6760 669,6760 L 628,6760 628,6959 C 628,6990 630,7012 635,7025 639,7039 647,7047 659,7051 671,7055 688,7059 709,7061 L 728,7063 728,7086 589,7083 588,7083 450,7086 450,7063 469,7061 C 490,7059 507,7055 519,7051 530,7047 538,7039 542,7025 547,7012 549,6990 549,6959 L 549,6545 C 549,6513 547,6491 542,6478 538,6465 530,6456 519,6452 507,6448 490,6445 469,6443 L 450,6441 450,6418 588,6420 719,6420 C 761,6420 800,6425 837,6435 873,6445 902,6461 924,6485 946,6509 957,6542 957,6584 957,6621 949,6652 932,6675 915,6698 894,6716 867,6728 840,6740 810,6749 778,6754 824,6757 862,6773 891,6801 920,6829 938,6871 946,6925 952,6960 959,6988 967,7007 976,7027 985,7041 995,7048 1006,7056 1016,7060 1027,7060 1033,7060 1040,7059 1047,7056 1053,7054 1059,7051 1064,7049 L 1070,7072 C 1060,7077 1047,7082 1030,7087 1015,7092 997,7094 980,7094 L 980,7094 Z M 721,6445 L 629,6445 629,6735 707,6735 C 767,6735 809,6723 833,6699 857,6674 869,6638 869,6590 869,6543 858,6508 836,6483 814,6457 776,6445 721,6445 L 721,6445 Z"/>
        <path fill="rgb(0,0,0)" stroke="none" d="M 1479,7094 C 1438,7094 1402,7085 1372,7067 1341,7050 1317,7025 1300,6993 1283,6962 1274,6926 1274,6886 1274,6842 1284,6803 1303,6769 1321,6735 1346,6709 1378,6689 1409,6669 1444,6659 1482,6659 1530,6659 1567,6675 1594,6705 1621,6736 1635,6776 1635,6825 1635,6833 1635,6839 1634,6844 1633,6849 1633,6853 1632,6855 L 1350,6855 C 1349,6863 1349,6872 1349,6881 1349,6914 1354,6945 1365,6973 1375,7001 1391,7024 1413,7041 1434,7058 1461,7066 1492,7066 1521,7066 1547,7058 1570,7041 1592,7024 1610,7000 1623,6968 L 1645,6976 C 1619,7055 1564,7094 1479,7094 L 1479,7094 Z M 1482,6683 C 1443,6683 1413,6697 1391,6724 1370,6752 1357,6788 1352,6833 L 1470,6833 C 1498,6833 1520,6830 1534,6824 1549,6817 1559,6809 1564,6799 1569,6790 1572,6780 1572,6771 1572,6743 1563,6722 1544,6706 1526,6691 1505,6683 1482,6683 L 1482,6683 Z"/>
        <path fill="rgb(0,0,0)" stroke="none" d="M 2046,7094 C 2022,7094 2002,7091 1986,7086 1969,7081 1956,7076 1947,7072 1937,7067 1931,7064 1928,7064 1925,7064 1923,7065 1922,7067 1920,7069 1919,7075 1917,7084 L 1895,7084 1899,7022 1902,6943 1923,6943 1924,6959 C 1925,6976 1931,6993 1941,7011 1951,7028 1965,7043 1984,7055 2002,7067 2022,7073 2046,7073 2072,7073 2092,7066 2108,7053 2123,7040 2131,7022 2131,6999 2131,6979 2123,6962 2107,6948 2091,6934 2070,6922 2041,6912 L 2008,6899 C 1976,6886 1951,6871 1935,6852 1918,6833 1910,6810 1910,6780 1910,6755 1916,6734 1927,6716 1938,6699 1954,6685 1973,6675 1992,6665 2012,6660 2034,6660 2049,6660 2063,6662 2073,6665 2084,6669 2094,6673 2101,6677 2107,6680 2113,6681 2117,6681 2123,6681 2128,6675 2132,6662 L 2152,6663 2149,6723 2149,6789 2127,6789 C 2123,6759 2113,6734 2097,6713 2082,6691 2059,6680 2030,6680 2009,6680 1992,6687 1978,6700 1964,6713 1957,6729 1957,6749 1957,6769 1965,6785 1979,6797 1994,6810 2014,6822 2040,6832 L 2076,6846 C 2114,6860 2140,6877 2155,6897 2170,6918 2177,6942 2177,6970 2177,7003 2166,7032 2143,7057 2121,7082 2088,7094 2046,7094 L 2046,7094 Z"/>
        <path fill="rgb(0,0,0)" stroke="none" d="M 2632,7094 C 2591,7094 2555,7085 2524,7067 2494,7050 2470,7025 2453,6993 2436,6962 2427,6926 2427,6886 2427,6842 2436,6803 2455,6769 2474,6735 2499,6709 2530,6689 2562,6669 2597,6659 2635,6659 2683,6659 2720,6675 2747,6705 2774,6736 2788,6776 2788,6825 2788,6833 2788,6839 2787,6844 2786,6849 2785,6853 2785,6855 L 2503,6855 C 2502,6863 2502,6872 2502,6881 2502,6914 2507,6945 2518,6973 2528,7001 2544,7024 2566,7041 2587,7058 2614,7066 2645,7066 2674,7066 2700,7058 2723,7041 2745,7024 2763,7000 2776,6968 L 2798,6976 C 2772,7055 2716,7094 2632,7094 L 2632,7094 Z M 2634,6683 C 2596,6683 2566,6697 2544,6724 2523,6752 2509,6788 2504,6833 L 2623,6833 C 2651,6833 2672,6830 2687,6824 2702,6817 2712,6809 2717,6799 2722,6790 2725,6780 2725,6771 2725,6743 2716,6722 2697,6706 2678,6691 2657,6683 2634,6683 L 2634,6683 Z"/>
        <path fill="rgb(0,0,0)" stroke="none" d="M 3151,7094 C 3121,7094 3096,7086 3077,7071 3057,7056 3047,7035 3047,7007 3047,6979 3060,6955 3084,6934 3108,6912 3137,6893 3169,6875 3193,6861 3217,6850 3242,6840 3266,6830 3287,6822 3304,6815 L 3304,6785 C 3304,6751 3298,6725 3285,6708 3273,6691 3248,6683 3213,6683 3196,6683 3179,6685 3163,6690 3147,6694 3139,6702 3139,6714 3139,6716 3139,6719 3140,6723 3141,6726 3142,6729 3143,6732 3146,6740 3147,6748 3147,6757 3147,6769 3143,6778 3135,6784 3126,6791 3116,6794 3104,6794 3093,6794 3084,6790 3076,6782 3069,6773 3065,6763 3065,6751 3065,6729 3074,6711 3091,6697 3108,6684 3129,6674 3154,6669 3179,6663 3203,6660 3226,6660 3275,6660 3312,6672 3335,6695 3358,6718 3370,6755 3370,6808 L 3370,6976 C 3370,7003 3372,7024 3376,7039 3380,7054 3389,7062 3403,7062 3412,7062 3421,7058 3428,7051 3434,7045 3439,7037 3442,7029 L 3459,7036 C 3453,7054 3445,7068 3432,7078 3419,7089 3401,7094 3379,7094 3351,7094 3333,7086 3322,7070 3312,7055 3306,7034 3305,7008 3288,7036 3265,7057 3239,7072 3212,7087 3183,7094 3151,7094 L 3151,7094 Z M 3120,7002 C 3120,7020 3125,7034 3135,7044 3146,7054 3161,7059 3181,7059 3199,7059 3216,7055 3233,7046 3249,7038 3264,7027 3276,7013 3288,7000 3298,6986 3304,6970 L 3304,6833 C 3283,6842 3262,6852 3241,6864 3220,6875 3200,6888 3181,6903 3163,6917 3148,6932 3137,6949 3126,6965 3120,6983 3120,7002 L 3120,7002 Z"/>
        <path fill="rgb(0,0,0)" stroke="none" d="M 3655,7087 L 3655,7065 3670,7063 C 3688,7061 3702,7058 3711,7054 3721,7051 3728,7043 3731,7031 3735,7019 3737,6999 3737,6971 L 3737,6777 C 3737,6752 3734,6734 3727,6723 3720,6712 3711,6705 3698,6702 3686,6700 3672,6698 3655,6698 L 3655,6677 C 3680,6677 3705,6676 3728,6674 3752,6672 3777,6669 3802,6665 L 3792,6773 3796,6773 C 3809,6731 3826,6702 3846,6685 3866,6668 3888,6660 3911,6660 3937,6660 3954,6666 3963,6679 3972,6692 3976,6704 3976,6716 3976,6729 3972,6741 3964,6749 3956,6758 3945,6762 3931,6762 3918,6762 3908,6759 3901,6753 3895,6747 3891,6740 3891,6732 3891,6725 3892,6719 3893,6714 3895,6708 3896,6704 3896,6701 3896,6695 3891,6691 3883,6691 3874,6691 3865,6695 3855,6704 3846,6712 3837,6723 3831,6737 3825,6749 3820,6762 3815,6776 3810,6791 3806,6806 3802,6823 L 3802,6971 C 3802,6999 3804,7019 3808,7031 3812,7043 3818,7051 3828,7054 3838,7058 3852,7061 3870,7063 L 3884,7065 3884,7087 3770,7084 3655,7087 3655,7087 Z"/>
        <path fill="rgb(0,0,0)" stroke="none" d="M 4404,7094 C 4362,7094 4326,7085 4294,7067 4263,7049 4239,7024 4222,6993 4205,6962 4197,6927 4197,6887 4197,6843 4207,6804 4226,6770 4245,6736 4272,6709 4305,6689 4338,6670 4375,6660 4417,6660 4437,6660 4457,6663 4478,6669 4500,6675 4518,6685 4532,6697 4547,6710 4554,6725 4554,6743 4554,6757 4550,6768 4541,6777 4532,6786 4522,6791 4509,6791 4493,6791 4481,6786 4473,6777 4465,6767 4461,6758 4461,6749 4461,6743 4461,6739 4462,6736 4463,6732 4464,6728 4464,6725 4466,6722 4467,6719 4467,6715 4468,6712 4468,6709 4468,6705 4468,6696 4462,6690 4449,6687 4437,6684 4426,6683 4416,6683 4373,6683 4338,6701 4312,6738 4286,6774 4273,6823 4273,6882 4273,6915 4278,6946 4290,6974 4301,7002 4317,7024 4338,7041 4360,7058 4387,7066 4418,7066 4445,7066 4469,7059 4493,7044 4517,7030 4534,7005 4544,6969 L 4567,6977 C 4555,7019 4534,7050 4503,7068 4472,7085 4439,7094 4404,7094 L 4404,7094 Z"/>
        <path fill="rgb(0,0,0)" stroke="none" d="M 4778,7087 L 4778,7065 4793,7063 C 4811,7061 4825,7058 4835,7054 4844,7051 4851,7043 4855,7031 4859,7019 4860,6999 4860,6971 L 4860,6515 C 4860,6483 4854,6462 4840,6453 4827,6444 4808,6439 4785,6439 L 4778,6439 4778,6418 C 4804,6418 4828,6417 4852,6415 4876,6414 4900,6411 4926,6407 L 4926,6741 C 4940,6720 4961,6701 4986,6684 5012,6668 5043,6660 5078,6660 5120,6660 5154,6670 5179,6692 5203,6713 5215,6744 5215,6784 L 5215,6971 C 5215,6999 5217,7019 5221,7031 5225,7043 5231,7051 5241,7054 5251,7058 5265,7061 5282,7063 L 5298,7065 5298,7087 5183,7084 5068,7087 5068,7065 5083,7063 C 5101,7061 5115,7058 5125,7054 5134,7051 5141,7043 5145,7031 5148,7019 5150,6999 5150,6971 L 5150,6784 C 5150,6753 5142,6729 5126,6713 5110,6696 5087,6688 5058,6688 5035,6688 5015,6693 4997,6703 4979,6713 4964,6726 4952,6741 4940,6756 4931,6770 4926,6784 L 4926,6970 C 4926,6999 4928,7019 4931,7031 4935,7043 4942,7051 4952,7054 4961,7058 4975,7060 4993,7063 L 5008,7065 5008,7086 4893,7083 4778,7087 4778,7087 Z"/>
        <path fill="none" stroke="rgb(0,0,0)" stroke-width="53" stroke-linejoin="miter" d="M 345,2369 L 7454,2369"/>
        <path fill="rgb(0,0,0)" stroke="none" d="M 1430,1957 L 1430,1918 1461,1914 C 1498,1910 1527,1905 1546,1898 1566,1891 1579,1876 1587,1853 1594,1830 1598,1793 1598,1741 L 1598,1037 C 1598,984 1594,947 1587,924 1579,902 1566,888 1546,881 1527,874 1498,868 1461,864 L 1430,861 1430,821 1664,826 2280,826 2283,940 2295,1086 2257,1086 C 2250,1039 2240,1001 2228,972 2216,943 2199,922 2176,908 2154,893 2124,884 2087,879 2049,874 2001,872 1941,872 L 1732,872 1732,1337 1910,1337 C 1931,1337 1950,1332 1966,1322 1981,1312 1994,1293 2004,1265 2014,1238 2021,1198 2023,1146 L 2062,1146 2058,1359 2062,1593 2023,1593 C 2023,1516 2013,1461 1994,1429 1975,1397 1947,1381 1910,1381 L 1732,1381 1732,1782 C 1732,1833 1743,1866 1766,1883 1788,1899 1829,1907 1889,1907 L 2037,1907 C 2098,1907 2146,1901 2181,1887 2215,1873 2241,1845 2258,1804 2275,1762 2286,1700 2293,1619 L 2332,1619 2321,1809 2316,1952 1664,1952 1430,1957 1430,1957 Z"/>
        <path fill="rgb(0,0,0)" stroke="none" d="M 4740,1984 C 4682,1984 4639,1964 4610,1924 4582,1885 4564,1836 4556,1778 4550,1735 4542,1693 4531,1651 4520,1608 4503,1569 4479,1534 4455,1498 4422,1470 4379,1449 4336,1428 4280,1417 4211,1417 L 4143,1417 4143,1755 C 4143,1807 4147,1844 4154,1867 4161,1890 4175,1905 4195,1911 4215,1918 4244,1924 4279,1928 L 4311,1931 4311,1971 4077,1966 4075,1966 3840,1971 3840,1931 3872,1928 C 3909,1924 3937,1918 3957,1911 3977,1905 3990,1890 3997,1867 4005,1844 4009,1807 4009,1755 L 4009,1051 C 4009,998 4005,960 3997,938 3990,916 3977,901 3957,894 3937,888 3909,882 3872,878 L 3840,875 3840,835 4075,840 4297,840 C 4369,840 4436,848 4497,864 4558,881 4608,909 4645,949 4683,989 4702,1046 4702,1117 4702,1181 4688,1233 4660,1272 4632,1312 4595,1342 4549,1363 4503,1383 4453,1398 4399,1406 4477,1412 4541,1438 4590,1487 4639,1535 4671,1605 4684,1698 4694,1757 4706,1804 4720,1837 4734,1870 4750,1894 4768,1907 4785,1920 4803,1927 4821,1927 4832,1927 4844,1925 4855,1920 4866,1916 4876,1912 4884,1908 L 4895,1947 C 4878,1956 4856,1964 4827,1972 4799,1980 4769,1984 4740,1984 L 4740,1984 Z M 4300,881 L 4143,881 4143,1375 4277,1375 C 4378,1375 4449,1354 4490,1313 4531,1271 4551,1210 4551,1127 4551,1049 4533,988 4496,945 4459,903 4394,881 4300,881 L 4300,881 Z"/>
        <path fill="rgb(0,0,0)" stroke="none" d="M 991,1421 C 950,1391 900,1362 841,1333 L 805,1316 C 777,1306 751,1292 727,1276 687,1253 652,1229 624,1204 585,1170 565,1123 565,1062 565,1018 577,981 601,949 609,911 624,876 645,844 630,849 615,855 601,862 553,887 515,921 487,964 460,1007 446,1057 446,1113 446,1185 465,1244 504,1290 543,1336 602,1378 681,1416 L 748,1448 C 829,1487 893,1529 939,1572 985,1615 1008,1673 1008,1743 1008,1791 998,1830 979,1859 959,1889 934,1911 904,1925 874,1939 842,1947 810,1947 750,1947 698,1932 652,1904 606,1875 568,1839 537,1794 507,1750 486,1704 475,1658 L 457,1583 418,1583 422,1788 414,1975 454,1975 459,1951 C 462,1937 466,1923 472,1911 478,1899 488,1893 503,1893 515,1893 528,1896 544,1902 559,1909 578,1918 602,1931 629,1945 660,1958 695,1972 729,1986 767,1993 810,1993 868,1993 920,1980 968,1954 1015,1928 1052,1891 1080,1843 1108,1796 1122,1741 1122,1678 1122,1618 1111,1568 1088,1528 1065,1487 1033,1452 991,1421 L 991,1421 Z"/>
        <path fill="rgb(246,163,62)" stroke="none" d="M 1115,1018 C 1115,1054 1105,1089 1087,1121 1069,1152 1043,1178 1012,1196 981,1214 945,1223 909,1223 873,1223 838,1214 806,1196 775,1178 749,1152 731,1121 713,1089 704,1054 704,1018 704,982 713,946 731,915 749,884 775,858 806,840 838,822 873,812 909,812 945,812 981,822 1012,840 1043,858 1069,884 1087,915 1105,946 1115,982 1115,1018 L 1115,1018 Z"/>
        <path fill="rgb(246,163,62)" stroke="none" d="M 7462,1837 C 7462,1873 7453,1908 7435,1940 7416,1971 7391,1997 7359,2015 7328,2033 7293,2042 7256,2042 7220,2042 7185,2033 7154,2015 7122,1997 7096,1971 7078,1940 7060,1908 7051,1873 7051,1837 7051,1801 7060,1765 7078,1734 7096,1703 7122,1677 7154,1659 7185,1641 7220,1631 7256,1631 7293,1631 7328,1641 7359,1659 7391,1677 7416,1703 7435,1734 7453,1765 7462,1801 7462,1837 L 7462,1837 Z"/>
        <path fill="rgb(0,0,0)" stroke="none" d="M 6624,1926 C 6604,1919 6590,1904 6583,1882 6575,1859 6572,1821 6572,1770 L 6572,1422 7176,1422 7176,1529 C 7202,1522 7229,1518 7257,1518 7275,1518 7294,1520 7311,1523 L 7311,1065 C 7311,1012 7315,975 7322,953 7330,930 7344,916 7364,909 7384,902 7412,897 7448,892 L 7480,889 7480,849 7245,854 7243,854 7009,849 7009,889 7040,892 C 7077,897 7106,902 7125,909 7145,916 7158,930 7166,953 7173,975 7177,1012 7177,1065 L 7177,1371 6572,1371 6572,1065 C 6572,1012 6576,975 6583,953 6591,930 6605,916 6625,909 6645,902 6673,897 6709,892 L 6741,889 6741,849 6506,854 6504,854 6270,849 6270,889 6301,892 C 6338,897 6367,902 6386,909 6406,916 6419,930 6427,953 6434,975 6438,1012 6438,1065 L 6438,1770 C 6438,1821 6434,1859 6427,1882 6419,1904 6406,1919 6386,1926 6367,1933 6338,1938 6301,1943 L 6270,1946 6270,1986 6504,1981 6506,1981 6741,1986 6741,1946 6709,1943 C 6672,1938 6644,1933 6624,1926 L 6624,1926 Z"/>
        <path fill="rgb(0,0,0)" stroke="none" d="M 5689,1906 C 5655,1916 5619,1922 5580,1922 5488,1922 5415,1901 5360,1858 5306,1815 5267,1754 5243,1675 5219,1595 5207,1500 5207,1389 5207,1315 5214,1246 5227,1181 5240,1116 5261,1058 5290,1009 5318,960 5356,921 5404,893 5452,865 5510,851 5580,851 5625,851 5666,858 5703,870 5715,855 5728,840 5743,828 5740,827 5738,826 5735,825 5693,811 5640,804 5575,804 5502,804 5434,818 5370,847 5306,876 5250,917 5201,970 5152,1023 5114,1085 5087,1156 5059,1227 5045,1305 5045,1389 5045,1502 5066,1602 5108,1690 5150,1777 5210,1846 5288,1895 5365,1945 5458,1970 5566,1970 5625,1970 5676,1962 5720,1946 5708,1934 5698,1920 5689,1906 L 5689,1906 Z"/>
        <path fill="rgb(246,163,62)" stroke="none" d="M 6046,1023 C 6046,1048 6040,1073 6027,1094 6015,1116 5997,1134 5975,1147 5953,1159 5928,1166 5903,1166 5878,1166 5853,1159 5832,1147 5810,1134 5792,1116 5779,1094 5767,1073 5760,1048 5760,1023 5760,998 5767,973 5779,951 5792,929 5810,911 5832,899 5853,886 5878,880 5903,880 5928,880 5953,886 5975,899 5997,911 6015,929 6027,951 6040,973 6046,998 6046,1023 L 6046,1023 Z"/>
        <path fill="rgb(246,163,62)" stroke="none" d="M 6046,1773 C 6046,1798 6040,1823 6027,1845 6015,1867 5997,1885 5975,1897 5953,1910 5928,1916 5903,1916 5878,1916 5853,1910 5832,1897 5810,1885 5792,1867 5779,1845 5767,1823 5760,1798 5760,1773 5760,1748 5767,1724 5779,1702 5792,1680 5810,1662 5832,1649 5853,1637 5878,1630 5903,1630 5928,1630 5953,1637 5975,1649 5997,1662 6015,1680 6027,1702 6040,1724 6046,1748 6046,1773 L 6046,1773 Z"/>
        <path fill="rgb(0,0,0)" stroke="none" d="M 2770,1894 C 2752,1883 2743,1868 2743,1848 2743,1836 2746,1823 2751,1807 2757,1792 2763,1775 2770,1756 L 2856,1550 3285,1550 C 3319,1532 3358,1522 3400,1522 3410,1522 3420,1523 3430,1524 L 3150,826 3096,826 2712,1757 C 2696,1796 2679,1825 2662,1847 2644,1869 2624,1884 2600,1894 2576,1904 2546,1911 2509,1916 L 2494,1918 2494,1957 2686,1953 2888,1957 2888,1918 2856,1915 C 2816,1911 2787,1904 2770,1894 L 2770,1894 Z M 3084,996 L 3284,1499 2877,1499 3084,996 3084,996 Z"/>
        <path fill="rgb(246,163,62)" stroke="none" d="M 3542,1773 C 3542,1798 3536,1823 3523,1845 3511,1867 3493,1885 3471,1897 3449,1910 3424,1916 3399,1916 3374,1916 3349,1910 3328,1897 3306,1885 3288,1867 3275,1845 3263,1823 3256,1798 3256,1773 3256,1748 3263,1724 3275,1702 3288,1680 3306,1662 3328,1649 3349,1637 3374,1630 3399,1630 3424,1630 3449,1637 3471,1649 3493,1662 3511,1680 3523,1702 3536,1724 3542,1748 3542,1773 L 3542,1773 Z"/>
       </g>
      </g>
     </g>
    </g>
   </g>
  </g>
 </g>
</svg>